<svg width="35" height="29" viewBox="0 0 35 29" fill="none" xmlns="http://www.w3.org/2000/svg">
<path d="M31.5 22C33.433 22 35 23.567 35 25.5C35 27.433 33.433 29 31.5 29H3.5C1.567 29 0 27.433 0 25.5C0 23.567 1.567 22 3.5 22H31.5ZM31.5 11C33.433 11 35 12.567 35 14.5C35 16.433 33.433 18 31.5 18H3.5C1.567 18 0 16.433 0 14.5C0 12.567 1.567 11 3.5 11H31.5ZM31.5 0C33.433 4.50979e-07 35 1.567 35 3.5C35 5.433 33.433 7 31.5 7H3.5C1.567 7 0 5.433 0 3.5C0 1.567 1.567 2.81862e-08 3.5 0H31.5Z" fill="black"/>
</svg>
