<svg width="44" height="41" viewBox="0 0 44 41" fill="none" xmlns="http://www.w3.org/2000/svg">
<path d="M16.3428 2.34315C19.467 -0.781048 24.5321 -0.781048 27.6562 2.34315L41.6562 16.3431C43.1564 17.8434 43.999 19.8778 43.999 21.9994V32.3998C43.999 36.8181 40.4173 40.3998 35.999 40.3998H29.7021C29.7088 40.3056 29.7139 40.2105 29.7139 40.1146V25.8285C29.7137 23.6195 27.9228 21.8286 25.7139 21.8285H18.8564C16.6475 21.8286 14.8566 23.6195 14.8564 25.8285V40.1146C14.8565 40.2105 14.8605 40.3056 14.8672 40.3998H8C3.58172 40.3998 0 36.8181 0 32.3998V21.9994C5.85945e-05 19.8778 0.842632 17.8434 2.34277 16.3431L16.3428 2.34315Z" fill="black"/>
</svg>
