<svg width="26" height="43" viewBox="0 0 26 43" fill="none" xmlns="http://www.w3.org/2000/svg">
<path d="M25.2529 0C24.9798 0.76731 24.6949 1.52853 24.3984 2.28223C23.8578 3.65637 23.2765 5.00702 22.6582 6.33594C24.1511 7.73329 24.5438 10.0211 23.4775 11.8682C22.46 13.6306 20.4306 14.4433 18.5469 13.998C17.9803 14.9709 17.4142 15.9441 16.8477 16.917C18.1824 18.3254 18.4972 20.4945 17.4775 22.2607C16.4519 24.0372 14.3983 24.848 12.502 24.3789C11.9396 25.3446 11.3778 26.3106 10.8154 27.2764C12.177 28.6837 12.5054 30.8731 11.4775 32.6533C10.4438 34.4437 8.36565 35.2539 6.45703 34.7607C5.42761 36.5286 4.39859 38.2966 3.36914 40.0645C2.96638 40.7561 2.56389 41.448 2.16113 42.1396C1.44101 41.7203 0.720126 41.3012 0 40.8818C0.402718 40.1903 0.80529 39.4982 1.20801 38.8066C2.24024 37.0341 3.27241 35.2609 4.30469 33.4883C2.97693 32.0796 2.66597 29.9159 3.68359 28.1533C4.70717 26.3805 6.75438 25.5683 8.64746 26.0312C9.21067 25.0642 9.77371 24.097 10.3369 23.1299C8.98196 21.7222 8.65778 19.5375 9.68359 17.7607C10.7153 15.974 12.7869 15.1634 14.6924 15.6504C15.2514 14.6905 15.8101 13.7304 16.3691 12.7705C14.9872 11.3642 14.6497 9.15889 15.6836 7.36816C16.7783 5.47254 19.0438 4.67522 21.0391 5.36133C21.8849 4.17533 22.7679 3.01039 23.6904 1.86914C24.1995 1.23941 24.7205 0.616145 25.2529 0Z" fill="black"/>
</svg>
