<svg width="38" height="38" viewBox="0 0 38 38" fill="none" xmlns="http://www.w3.org/2000/svg">
<path d="M4.41211 35.9424C4.60057 35.9797 4.79708 36 5 36V38L4.74316 37.9932C4.49843 37.9808 4.25862 37.9497 4.02441 37.9033L4.41211 35.9424ZM6 36V38H5V36H6ZM10 36V38H8V36H10ZM14 36V38H12V36H14ZM18 36V38H16V36H18ZM22 36V38H20V36H22ZM26 36V38H24V36H26ZM30 36V38H28V36H30ZM33 36V38H32V36H33ZM33.7822 36.9238L33.9746 37.9033C33.7407 37.9496 33.5012 37.9808 33.2568 37.9932L33 38V36C33.2029 36 33.3994 35.9797 33.5879 35.9424L33.7822 36.9238ZM2.50391 34.665C2.72351 34.9931 3.00694 35.2765 3.33496 35.4961L2.22168 37.1572C1.67639 36.7921 1.2068 36.3227 0.841797 35.7773L2.50391 34.665ZM35.4961 34.665L37.1572 35.7773C36.7921 36.3228 36.3228 36.7921 35.7773 37.1572L34.665 35.4961C34.9931 35.2765 35.2765 34.9931 35.4961 34.665ZM0 33V32H2V33C2 33.2029 2.02033 33.3994 2.05762 33.5879L0.0957031 33.9746C0.0494928 33.7408 0.0191999 33.5012 0.00683594 33.2568L0 33ZM38 33C38 33.3336 37.9656 33.6593 37.9033 33.9746L36.9238 33.7822L35.9424 33.5879C35.9797 33.3994 36 33.2029 36 33V32H38V33ZM2 28V30H0V28H2ZM38 28V30H36V28H38ZM2 24V26H0V24H2ZM38 24V26H36V24H38ZM2 20V22H0V20H2ZM38 20V22H36V20H38ZM2 16V18H0V16H2ZM38 16V18H36V16H38ZM2 12V14H0V12H2ZM38 12V14H36V12H38ZM2 8V10H0V8H2ZM38 8V10H36V8H38ZM0 5C0 4.66611 0.0332824 4.33998 0.0957031 4.02441L1.07617 4.21777L2.05762 4.41211C2.02033 4.60057 2 4.79708 2 5V6H0V5ZM38 6H36V5C36 4.79708 35.9797 4.60057 35.9424 4.41211L37.9033 4.02441C37.9658 4.34004 38 4.66605 38 5V6ZM3.33496 2.50391C3.00694 2.72351 2.72351 3.00694 2.50391 3.33496L0.841797 2.22168C1.20684 1.67642 1.67642 1.20684 2.22168 0.841797L3.33496 2.50391ZM35.7773 0.841797C36.3227 1.2068 36.7921 1.67639 37.1572 2.22168L35.4961 3.33496C35.2765 3.00694 34.9931 2.72351 34.665 2.50391L35.7773 0.841797ZM6 0V2H5C4.79708 2 4.60057 2.02033 4.41211 2.05762L4.02441 0.0957031C4.33998 0.0332823 4.66611 1.16846e-08 5 0H6ZM33 0C33.3336 0 33.6593 0.0334033 33.9746 0.0957031L33.7822 1.07617L33.7812 1.0752L33.5879 2.05762C33.3994 2.02033 33.2029 2 33 2H32V0H33ZM10 0V2H8V0H10ZM14 0V2H12V0H14ZM18 0V2H16V0H18ZM22 0V2H20V0H22ZM26 0V2H24V0H26ZM30 0V2H28V0H30Z" fill="black"/>
</svg>
