<svg width="39" height="38" viewBox="0 0 39 38" fill="none" xmlns="http://www.w3.org/2000/svg">
<path d="M16.5981 2.07296C17.4961 -0.690968 21.4063 -0.690972 22.3044 2.07296L24.8396 9.8754C25.2412 11.1115 26.3931 11.9483 27.6927 11.9483H35.8967C38.8029 11.9483 40.0112 15.6672 37.6601 17.3754L31.0229 22.1976C29.9715 22.9615 29.5315 24.3156 29.9331 25.5517L32.4683 33.3541C33.3663 36.118 30.2029 38.4164 27.8517 36.7082L21.2146 31.886C20.1631 31.1221 18.7393 31.1221 17.6879 31.886L11.0507 36.7082C8.69959 38.4164 5.53614 36.1181 6.4342 33.3541L8.96937 25.5517C9.37099 24.3156 8.93101 22.9615 7.87955 22.1976L1.2424 17.3754C-1.10874 15.6672 0.0995861 11.9483 3.00576 11.9483H11.2097C12.5094 11.9483 13.6613 11.1115 14.0629 9.8754L16.5981 2.07296Z" fill="black"/>
</svg>
