<svg width="26" height="31" viewBox="0 0 26 31" fill="none" xmlns="http://www.w3.org/2000/svg">
<path d="M12.5576 16.0176C16.3586 16.0176 20.0037 17.5281 22.6914 20.2158C23.2268 20.7512 23.716 21.3247 24.1553 21.9297C27.0749 25.9517 22.8599 30.3494 17.8897 30.3496H7.22561C2.2554 30.3494 -1.95967 25.9517 0.959981 21.9297C1.39925 21.3247 1.88849 20.7512 2.42385 20.2158C5.11155 17.5281 8.75666 16.0176 12.5576 16.0176ZM12.5576 0C16.2823 0 19.3016 3.01951 19.3018 6.74414C19.3018 10.4689 16.2824 13.4883 12.5576 13.4883C8.83287 13.4883 5.8135 10.4689 5.8135 6.74414C5.81366 3.01951 8.83297 2.57698e-07 12.5576 0Z" fill="black"/>
</svg>
