<svg width="67" height="64" viewBox="0 0 67 64" fill="none" xmlns="http://www.w3.org/2000/svg">
<path d="M20.009 54.7804L19.9302 24.5503C19.9302 23.6897 20.6199 23 21.4804 23L51.7171 23.0788C52.6893 23.0788 53.1754 24.2547 52.4923 24.9444L44.2745 33.1621C44.0709 33.3657 43.795 33.4774 43.506 33.4774L32.4308 33.4511C31.2944 33.4511 30.3813 34.3642 30.3813 35.5006L30.4076 46.5758C30.4076 46.8649 30.2959 47.1407 30.0923 47.3444L21.8746 55.5621C21.1914 56.2453 20.0156 55.7592 20.009 54.787V54.7804Z" fill="#1E1E1E"/>
<path d="M39.8523 5.13681L32.0497 5.13681C30.4023 5.13681 29.0669 6.47223 29.0669 8.11957L29.067 15.9221C29.067 17.5695 30.4024 18.9049 32.0497 18.9049L39.8523 18.9049C41.4995 18.9049 42.835 17.5694 42.835 15.9222L42.835 8.11956C42.835 6.47222 41.4996 5.13681 39.8523 5.13681Z" fill="#E7B339"/>
</svg>
