<svg width="67" height="66" viewBox="0 0 67 66" fill="none" xmlns="http://www.w3.org/2000/svg">
<circle cx="34.9302" cy="32" r="32" fill="white"/>
<path d="M20.009 56.7804L19.9302 26.5503C19.9302 25.6897 20.6199 25 21.4804 25L51.7171 25.0788C52.6893 25.0788 53.1754 26.2547 52.4923 26.9444L44.2746 35.1621C44.0709 35.3657 43.795 35.4774 43.506 35.4774L32.4308 35.4511C31.2944 35.4511 30.3813 36.3642 30.3813 37.5006L30.4076 48.5758C30.4076 48.8649 30.2959 49.1407 30.0923 49.3444L21.8746 57.5621C21.1914 58.2453 20.0156 57.7592 20.009 56.787V56.7804Z" fill="#1E1E1E"/>
<path d="M39.8523 7.13681L32.0497 7.13681C30.4023 7.13681 29.0669 8.47223 29.0669 10.1196L29.067 17.9221C29.067 19.5695 30.4024 20.9049 32.0497 20.9049L39.8523 20.9049C41.4996 20.9049 42.835 19.5694 42.835 17.9222L42.835 10.1196C42.835 8.47222 41.4996 7.13681 39.8523 7.13681Z" fill="#E7B339"/>
</svg>
