<svg width="44" height="32" viewBox="0 0 44 32" fill="none" xmlns="http://www.w3.org/2000/svg">
<path d="M41 0C42.6569 0 44 1.34315 44 3V28.2256C43.9998 29.8822 42.6567 31.2256 41 31.2256H3C1.34329 31.2256 0.000238317 29.8822 0 28.2256V3C0 1.34315 1.34315 4.8326e-08 3 0H41ZM7 7V23.5596H10.4561V16.5996H16.5996V23.5596H20.0557V7H16.5996V13.4805H10.4561V7H7ZM23.9922 23.5596H30.2803C34.7922 23.5595 37.0479 21.304 37.0479 16.792V13.7676C37.0477 9.25589 34.7921 7.00003 30.2803 7H23.9922V23.5596ZM30.4727 10.1201C32.5523 10.1203 33.5918 11.1604 33.5918 13.2402V17.3203C33.5917 19.3999 32.5522 20.4403 30.4727 20.4404H27.4482V10.1201H30.4727Z" fill="black"/>
</svg>
