<svg width="44" height="37" viewBox="0 0 44 37" fill="none" xmlns="http://www.w3.org/2000/svg">
<path d="M41 0C42.6569 0 44 1.34315 44 3V28.2256C43.9998 29.8822 42.6567 31.2256 41 31.2256H23.4189V33.3545H28.0967C28.649 33.3545 29.0967 33.8022 29.0967 34.3545V35.9023C29.0967 36.4546 28.649 36.9023 28.0967 36.9023H15.1934C14.6412 36.9022 14.1934 36.4546 14.1934 35.9023V34.3545C14.1934 33.8023 14.6412 33.3546 15.1934 33.3545H19.8711V31.2256H3C1.34329 31.2256 0.000238317 29.8822 0 28.2256V3C0 1.34315 1.34315 4.83191e-08 3 0H41ZM3.41895 1.41895C2.3147 1.41917 1.41917 2.3147 1.41895 3.41895V27.6777H42.5811V3.41895C42.5808 2.3147 41.6853 1.41917 40.5811 1.41895H3.41895Z" fill="black"/>
</svg>
