<svg width="39" height="39" viewBox="0 0 39 39" fill="none" xmlns="http://www.w3.org/2000/svg">
<path d="M18.0956 4.25229C14.9072 4.25229 11.7897 5.19771 9.13858 6.96908C6.48748 8.74049 4.42129 11.2587 3.20108 14.2044C1.98093 17.1501 1.66116 20.3917 2.28311 23.5189C2.90514 26.6461 4.44068 29.5192 6.69522 31.7738C8.94979 34.0283 11.8229 35.5638 14.9501 36.1859C18.0772 36.8078 21.3189 36.488 24.2646 35.2679C27.2103 34.0477 29.7285 31.9815 31.4999 29.3304C33.2712 26.6794 34.2166 23.5627 34.2167 20.3744H36.1903C36.1903 23.953 35.1296 27.4515 33.1415 30.4271C31.1531 33.4028 28.3259 35.7225 25.0194 37.0921C21.7131 38.4616 18.0744 38.8206 14.5644 38.1224C11.0544 37.4241 7.8303 35.6999 5.29971 33.1693C2.76917 30.6387 1.04581 27.4146 0.347561 23.9046C-0.350653 20.3945 0.00825845 16.7561 1.37783 13.4496C2.74743 10.1431 5.06618 7.31681 8.0419 5.32846C11.0177 3.34009 14.5166 2.27865 18.0956 2.27865V4.25229ZM20.4931 0.00130857C22.6466 0.114755 24.7677 0.595106 26.7646 1.42221C29.0697 2.37702 31.1643 3.77614 32.9286 5.54037C34.6929 7.30468 36.0929 9.39925 37.0478 11.7044C37.8749 13.7013 38.3542 15.8224 38.4677 17.9759C38.4967 18.5274 38.0462 18.9758 37.494 18.9759H20.494C19.9419 18.9759 19.4943 18.528 19.494 17.9759V0.975918C19.494 0.42376 19.9417 -0.0275181 20.4931 0.00130857Z" fill="black"/>
</svg>
