<svg width="33" height="28" viewBox="0 0 33 28" fill="none" xmlns="http://www.w3.org/2000/svg">
<path d="M7.86905 3.19897C10.4315 0.989454 13.7454 -0.150487 17.1249 0.0159686C20.5042 0.182429 23.6902 1.64231 26.0231 4.09287C28.3561 6.54357 29.6574 9.79777 29.6574 13.1813H27.4605C27.4605 10.3617 26.3761 7.64975 24.432 5.6075C22.4879 3.56543 19.833 2.34941 17.0169 2.21068C14.2007 2.07196 11.439 3.02117 9.30358 4.86234C7.16825 6.70356 5.82281 9.29566 5.54562 12.1015L3.35878 11.8863C3.69131 8.51906 5.30654 5.40853 7.86905 3.19897Z" fill="black"/>
<path d="M32.647 10.647L29.0565 14.3856L23.775 12.3774L24.5558 10.3238L28.4782 11.815L31.0617 9.1252L32.647 10.647Z" fill="black"/>
<path d="M25.1037 24.4906C22.5412 26.7001 19.2273 27.8401 15.8479 27.6736C12.4685 27.5072 9.28257 26.0473 6.94963 23.5967C4.61667 21.146 3.31539 17.8918 3.31538 14.5082L5.51224 14.5082C5.51224 17.3279 6.59665 20.0398 8.54077 22.0821C10.4849 24.1242 13.1398 25.3402 15.9559 25.4789C18.772 25.6176 21.5338 24.6684 23.6692 22.8272C25.8045 20.986 27.1499 18.3939 27.4271 15.5881L29.614 15.8033C29.2814 19.1705 27.6662 22.2811 25.1037 24.4906Z" fill="black"/>
<path d="M0.325748 17.0426L3.91622 13.3039L9.19779 15.3121L8.41696 17.3658L4.49459 15.8746L1.911 18.5644L0.325748 17.0426Z" fill="black"/>
</svg>
