<svg width="28" height="37" viewBox="0 0 28 37" fill="none" xmlns="http://www.w3.org/2000/svg">
<path d="M18.0986 0C18.4033 3.63478e-05 18.6912 0.138578 18.8809 0.376953L20.8457 2.8457C21.1667 3.24903 21.1288 3.83063 20.7578 4.18848L16.3564 8.43262C22.9662 9.55297 27.9998 15.3057 28 22.2344C28 29.9664 21.732 36.2344 14 36.2344C6.26801 36.2344 0 29.9664 0 22.2344C0.000222692 15.306 5.03326 9.55336 11.6426 8.43262L7.24219 4.18848C6.87121 3.83063 6.83334 3.24903 7.1543 2.8457L9.11914 0.376953C9.30884 0.138577 9.59673 3.62482e-05 9.90137 0H18.0986ZM14 10.7051C7.63264 10.7051 2.47095 15.8671 2.4707 22.2344C2.4707 28.6019 7.63248 33.7646 14 33.7646C20.3675 33.7646 25.5293 28.6019 25.5293 22.2344C25.529 15.8671 20.3674 10.7051 14 10.7051Z" fill="black"/>
</svg>
