<svg width="31" height="22" viewBox="0 0 31 22" fill="none" xmlns="http://www.w3.org/2000/svg">
<path d="M12.911 19.8169C12.5205 19.4264 12.5165 18.781 12.9863 18.4906C13.1826 18.3692 13.3888 18.2636 13.6029 18.1749C14.1258 17.9583 14.6866 17.8469 15.2526 17.8469C15.8187 17.8469 16.3799 17.9589 16.903 18.1755C17.1171 18.2642 17.3234 18.3698 17.5199 18.4911C17.9899 18.7811 17.9861 19.4265 17.5955 19.817L15.9604 21.4521C15.5699 21.8427 14.9367 21.8427 14.5462 21.4521L12.911 19.8169ZM5.31376 12.2197C4.92324 11.8292 4.92114 11.1932 5.33675 10.8295C6.57006 9.75014 7.97321 8.87802 9.49149 8.24912C11.3182 7.49249 13.2761 7.10285 15.2533 7.10283C17.2304 7.10285 19.1885 7.49253 21.0151 8.24912C22.5333 8.87799 23.9365 9.75019 25.1698 10.8295C25.5855 11.1932 25.5834 11.8292 25.1928 12.2197L23.5155 13.897C23.125 14.2875 22.4946 14.2834 22.0693 13.9312C21.2488 13.2516 20.3295 12.6971 19.342 12.2881C18.0458 11.7512 16.6556 11.4746 15.2526 11.4746C13.8499 11.4747 12.4607 11.7513 11.1647 12.2881C10.177 12.6972 9.25785 13.2515 8.43735 13.9311C8.01201 14.2834 7.38159 14.2875 6.99107 13.897L5.31376 12.2197ZM0.291508 7.19744C-0.0990159 6.80691 -0.100509 6.17191 0.307234 5.7994C2.2054 4.06525 4.39285 2.67287 6.77286 1.68698C9.46133 0.573373 12.3433 7.88828e-07 15.2533 7.25229e-07C18.1633 3.29452e-06 21.0453 0.573375 23.7338 1.68698C26.1138 2.67287 28.3012 4.06526 30.1994 5.7994C30.6071 6.17191 30.6056 6.80691 30.2151 7.19744L27.3142 10.0984C26.9236 10.4889 26.2925 10.4863 25.8784 10.1209C24.5511 8.9496 23.0373 8.00433 21.3977 7.32518C19.4497 6.51834 17.3617 6.10296 15.2533 6.10294C13.1449 6.10296 11.0569 6.51834 9.10894 7.32518C7.46929 8.00436 5.95549 8.94956 4.62824 10.1209C4.21414 10.4863 3.58297 10.4889 3.19244 10.0984L0.291508 7.19744ZM9.11239 16.0183C8.72187 15.6278 8.71892 14.99 9.14764 14.6418C9.87284 14.0529 10.6809 13.5708 11.5472 13.212C12.7221 12.7254 13.9817 12.4752 15.2533 12.4752C16.5249 12.4752 17.7846 12.7254 18.9594 13.212C19.8255 13.5708 20.6337 14.0529 21.3589 14.6419C21.7877 14.99 21.7847 15.6278 21.3942 16.0183L19.7169 17.6957C19.3264 18.0862 18.6972 18.0768 18.2403 17.7665C17.9411 17.5633 17.6211 17.3906 17.2855 17.2516C16.6412 16.9848 15.95 16.847 15.2526 16.847C14.5554 16.847 13.8646 16.9841 13.2204 17.2509C12.8848 17.3899 12.5651 17.5627 12.2661 17.7661C11.8094 18.0767 11.1802 18.0861 10.7897 17.6956L9.11239 16.0183Z" fill="black"/>
</svg>
