<svg width="29" height="29" viewBox="0 0 29 29" fill="none" xmlns="http://www.w3.org/2000/svg">
<path d="M24.7527 4.24658C30.4151 9.90914 30.4151 19.0901 24.7527 24.7527C19.0901 30.415 9.90913 30.4151 4.24659 24.7527C-1.41539 19.0901 -1.41563 9.90901 4.24659 4.24658C9.90901 -1.41567 19.0901 -1.41541 24.7527 4.24658ZM19.8029 9.19633C19.1336 8.52695 18.0487 8.52715 17.3792 9.19633L14.4996 12.0759L11.6201 9.19633C10.9506 8.52715 9.8657 8.52695 9.19633 9.19633C8.52696 9.8657 8.52716 10.9506 9.19633 11.6201L12.0759 14.4996L9.19633 17.3792C8.52716 18.0486 8.52696 19.1336 9.19633 19.8029C9.86571 20.4723 10.9506 20.4721 11.6201 19.8029L14.4996 16.9234L17.3792 19.8029C18.0487 20.4721 19.1336 20.4723 19.8029 19.8029C20.4723 19.1336 20.4721 18.0486 19.8029 17.3792L16.9234 14.4996L19.8029 11.6201C20.4721 10.9506 20.4723 9.8657 19.8029 9.19633Z" fill="black"/>
</svg>
