<svg width="30" height="30" viewBox="0 0 30 30" fill="none" xmlns="http://www.w3.org/2000/svg">
<path d="M15 0C23.2841 9.99203e-05 29.9999 6.7159 30 15C29.9998 23.2841 23.2841 29.9999 15 30C6.71619 29.9996 0.000151293 23.2839 0 15C0.000125045 6.7161 6.71617 0.000426165 15 0ZM16.4268 5.39062C15.9777 4.00866 14.0223 4.00866 13.5732 5.39062L12.1934 9.6377C11.9924 10.2555 11.4163 10.6738 10.7666 10.6738H6.30176C4.84867 10.6738 4.24435 12.5336 5.41992 13.3877L9.03223 16.0117C9.55786 16.3936 9.77777 17.0705 9.57715 17.6885L8.19727 21.9355C7.74824 23.3175 9.33029 24.4664 10.5059 23.6123L14.1182 20.9883C14.6439 20.6063 15.3561 20.6063 15.8818 20.9883L19.4941 23.6123C20.6697 24.4664 22.2518 23.3175 21.8027 21.9355L20.4229 17.6885C20.2222 17.0705 20.4421 16.3936 20.9678 16.0117L24.5801 13.3877C25.7556 12.5336 25.1513 10.6738 23.6982 10.6738H19.2334C18.5837 10.6738 18.0076 10.2555 17.8066 9.6377L16.4268 5.39062Z" fill="black"/>
</svg>
