<svg width="36" height="36" viewBox="0 0 36 36" fill="none" xmlns="http://www.w3.org/2000/svg">
<path d="M18 0C27.9411 0 36 8.05887 36 18C36 27.9411 27.9411 36 18 36C8.05887 36 0 27.9411 0 18C0 8.05887 8.05887 0 18 0ZM7.5791 21.3154C7.5791 22.6839 7.84839 24.0394 8.37207 25.3037C8.89574 26.568 9.66326 27.7169 10.6309 28.6846C11.5985 29.6522 12.7475 30.4197 14.0117 30.9434C15.2761 31.4671 16.6315 31.7373 18 31.7373C19.3685 31.7373 20.7239 31.4671 21.9883 30.9434C23.2525 30.4197 24.4015 29.6522 25.3691 28.6846C26.3367 27.7169 27.1043 26.568 27.6279 25.3037C28.1516 24.0394 28.4209 22.6839 28.4209 21.3154H7.5791ZM9.94727 7.5791C7.06976 7.57916 4.73753 9.91159 4.7373 12.7891C4.7373 15.6667 7.06962 17.9999 9.94727 18C12.825 18 15.1582 15.6668 15.1582 12.7891C15.158 9.91156 12.8248 7.5791 9.94727 7.5791ZM25.5791 7.5791C22.7015 7.5791 20.3684 9.91156 20.3682 12.7891C20.3682 15.6668 22.7014 18 25.5791 18C28.4567 17.9999 30.7891 15.6667 30.7891 12.7891C30.7888 9.91161 28.4566 7.57919 25.5791 7.5791Z" fill="black"/>
</svg>
