<svg width="37" height="36" viewBox="0 0 37 36" fill="none" xmlns="http://www.w3.org/2000/svg">
<path d="M1.84668 19.9521C2.86671 19.9522 3.69336 20.7798 3.69336 21.7998L3.69434 30.9102C3.69435 31.5902 4.24577 32.1416 4.92578 32.1416H14.0361C15.0561 32.1416 15.8827 32.9683 15.8828 33.9883C15.8828 35.0083 15.0562 35.835 14.0361 35.835L4.92578 35.8359C2.2057 35.8359 1.07487e-05 33.6302 0 30.9102V21.7998C8.66829e-07 20.7799 0.8268 19.9523 1.84668 19.9521ZM34.6934 19.9521C35.7134 19.9521 36.54 20.7798 36.54 21.7998V30.9102C36.54 33.6302 34.3352 35.8358 31.6152 35.8359L22.5039 35.835C21.484 35.8348 20.6572 35.0082 20.6572 33.9883C20.6573 32.9684 21.4841 32.1418 22.5039 32.1416H31.6152C32.2952 32.1415 32.8467 31.5901 32.8467 30.9102V21.7998C32.8467 20.7798 33.6733 19.9522 34.6934 19.9521ZM18.1982 10.2803C23.3992 10.2804 27.8936 13.3073 30.0156 17.6953C27.8937 22.0836 23.3994 25.1102 18.1982 25.1104C12.9969 25.1103 8.50286 22.0837 6.38086 17.6953C8.50301 13.3074 12.9972 10.2803 18.1982 10.2803ZM18.3594 13.1328C15.8392 13.1328 13.7959 15.1761 13.7959 17.6963C13.7961 20.2163 15.8393 22.2588 18.3594 22.2588C20.8792 22.2585 22.9216 20.2162 22.9219 17.6963C22.9219 15.1762 20.8794 13.1331 18.3594 13.1328ZM14.0361 0C15.0561 8.60903e-07 15.8827 0.826737 15.8828 1.84668C15.8828 2.86671 15.0562 3.69336 14.0361 3.69336L4.92578 3.69434C4.24588 3.69434 3.69454 4.24496 3.69434 4.9248L3.69336 14.0361C3.69328 15.0561 2.86666 15.8828 1.84668 15.8828C0.826851 15.8826 7.89064e-05 15.056 0 14.0361V4.9248C0.000205845 2.20489 2.20583 -7.5901e-08 4.92578 0H14.0361ZM31.6152 0C34.3351 9.60518e-05 36.5408 2.20496 36.541 4.9248L36.54 14.0361C36.54 15.0561 35.7133 15.8828 34.6934 15.8828C33.6734 15.8828 32.8468 15.0561 32.8467 14.0361V4.9248C32.8465 4.24502 32.295 3.69443 31.6152 3.69434L22.5039 3.69336C21.484 3.69317 20.6572 2.86659 20.6572 1.84668C20.6573 0.826857 21.4841 0.000188633 22.5039 0H31.6152Z" fill="black"/>
</svg>
