<svg width="15" height="24" viewBox="0 0 15 24" fill="none" xmlns="http://www.w3.org/2000/svg">
<path d="M9.44137 23.3451L9.25885 24H0L0.232301 23.3451C1.1615 23.3215 1.77544 23.2389 2.07412 23.0973C2.56084 22.8968 2.92035 22.6195 3.15265 22.2655C3.5177 21.7109 3.89381 20.7198 4.28097 19.292L8.1969 4.81416C8.52876 3.61062 8.69469 2.70206 8.69469 2.0885C8.69469 1.78171 8.62279 1.52212 8.47898 1.30973C8.33518 1.09735 8.11394 0.938053 7.81527 0.831858C7.52765 0.713864 6.95796 0.654867 6.10619 0.654867L6.30531 0H15L14.8175 0.654867C14.1095 0.643068 13.5841 0.725664 13.2412 0.902655C12.7434 1.13864 12.3617 1.47493 12.0962 1.9115C11.8418 2.34808 11.51 3.31563 11.1007 4.81416L7.20133 19.292C6.84734 20.6254 6.67035 21.4749 6.67035 21.8407C6.67035 22.1357 6.73673 22.3894 6.86947 22.6018C7.01327 22.8024 7.23451 22.9617 7.53319 23.0796C7.84292 23.1858 8.47898 23.2743 9.44137 23.3451Z" fill="black"/>
</svg>
