<svg width="34" height="34" viewBox="0 0 34 34" fill="none" xmlns="http://www.w3.org/2000/svg">
<path d="M19.0859 27.7148C19.8727 27.715 20.3519 28.5822 19.9326 29.248L17.5674 33.0039C17.1752 33.6265 16.2674 33.6262 15.875 33.0039L13.5088 29.248C13.0894 28.5821 13.5685 27.7148 14.3555 27.7148H19.0859ZM16.7363 7.9668C19.1592 7.96699 21.3469 8.96887 22.9121 10.5791C24.5103 12.1431 25.5037 14.3228 25.5039 16.7354C25.5037 21.4928 21.6471 25.3496 16.8896 25.3496C14.4675 25.3496 12.2809 24.3485 10.7158 22.7393C9.11581 21.1753 8.1211 18.995 8.12109 16.5811C8.1211 11.8235 11.9789 7.96697 16.7363 7.9668ZM4.22266 13.5078C4.88841 13.0887 5.7555 13.5679 5.75586 14.3545V19.085C5.75586 19.872 4.88857 20.3511 4.22266 19.9316L0.466797 17.5664C-0.155642 17.1742 -0.1556 16.2663 0.466797 15.874L4.22266 13.5078ZM27.7148 14.3545C27.7152 13.5679 28.5823 13.0887 29.248 13.5078L33.0039 15.874C33.6262 16.2663 33.6263 17.1742 33.0039 17.5664L29.248 19.9316C28.5821 20.3511 27.7148 19.872 27.7148 19.085V14.3545ZM15.875 0.466797C16.2674 -0.155414 17.1753 -0.155745 17.5674 0.466797L19.9326 4.22266C20.3518 4.88848 19.8727 5.75566 19.0859 5.75586H14.3555C13.5685 5.75586 13.0894 4.88857 13.5088 4.22266L15.875 0.466797Z" fill="black"/>
</svg>
