<svg width="28" height="34" viewBox="0 0 28 34" fill="none" xmlns="http://www.w3.org/2000/svg">
<path d="M13.4824 0C19.6334 0.000254776 24.62 4.98665 24.6201 11.1377C24.6201 11.415 24.6059 11.6897 24.5859 11.9619C26.3599 13.0042 27.5517 14.9315 27.5518 17.1377V28C27.5518 31.3135 24.8652 33.9997 21.5518 34H6C2.6863 34 5.78472e-07 31.3137 0 28V17.1377C7.62725e-05 15.1706 0.946544 13.4242 2.40918 12.3301C2.36748 11.9383 2.34473 11.5406 2.34473 11.1377C2.34485 4.98661 7.33136 0.000193275 13.4824 0ZM13.4824 18.7588C11.2162 18.7588 9.37891 20.596 9.37891 22.8623C9.379 24.499 10.3375 25.9117 11.7236 26.5703V28.1377C11.7237 29.1089 12.5112 29.8965 13.4824 29.8965C14.4536 29.8964 15.2411 29.1088 15.2412 28.1377V26.5703C16.6273 25.9117 17.5858 24.499 17.5859 22.8623C17.5859 20.5961 15.7486 18.7589 13.4824 18.7588ZM13.4824 4C9.54049 4.00019 6.34485 7.19575 6.34473 11.1377H20.6201C20.62 7.19579 17.4243 4.00025 13.4824 4Z" fill="black"/>
</svg>
