<svg width="34" height="34" viewBox="0 0 34 34" fill="none" xmlns="http://www.w3.org/2000/svg">
<path d="M4.03094 4.03085C9.40553 -1.34358 18.1198 -1.34368 23.4943 4.03085C28.2645 8.80117 28.7995 16.2017 25.1019 21.5635L33.2253 29.6869L29.6863 33.2259L21.5622 25.1018C16.2005 28.799 8.80109 28.2642 4.03094 23.4942C-1.34365 18.1197 -1.34365 9.40543 4.03094 4.03085ZM7.56992 7.56983C4.14973 10.99 4.14973 16.5351 7.56992 19.9553C10.9901 23.3753 16.5352 23.3754 19.9553 19.9553C23.3753 16.5351 23.3753 10.99 19.9553 7.56983C16.5352 4.1497 10.9901 4.1498 7.56992 7.56983Z" fill="black"/>
</svg>
