<svg width="34" height="34" viewBox="0 0 34 34" fill="none" xmlns="http://www.w3.org/2000/svg">
<path fill-rule="evenodd" clip-rule="evenodd" d="M18.5312 29.1797C19.301 29.1797 19.7822 30.013 19.3975 30.6797L17.8213 33.4102C17.4364 34.0768 16.4738 34.0768 16.0889 33.4102L14.5127 30.6797C14.128 30.013 14.6092 29.1797 15.3789 29.1797H18.5312ZM5.52344 24.9326C5.72289 24.1894 6.65205 23.9402 7.19629 24.4844L9.42578 26.7139C9.96989 27.2581 9.72074 28.1872 8.97754 28.3867L5.93164 29.2031C5.1882 29.4022 4.50799 28.722 4.70703 27.9785L5.52344 24.9326ZM26.7139 24.4844C27.2581 23.9402 28.1873 24.1894 28.3867 24.9326L29.2031 27.9785C29.4022 28.7219 28.7219 29.4022 27.9785 29.2031L24.9326 28.3867C24.1894 28.1873 23.9402 27.2581 24.4844 26.7139L26.7139 24.4844ZM16.9746 5.87598C22.8923 5.87623 27.6903 10.6741 27.6904 16.5918C27.6902 22.5095 22.8923 27.3064 16.9746 27.3066C11.0568 27.3066 6.25904 22.5096 6.25879 16.5918C6.25896 10.6739 11.0567 5.87602 16.9746 5.87598ZM3.23047 14.5127C3.89711 14.128 4.73047 14.6092 4.73047 15.3789V18.5312C4.73047 19.301 3.89711 19.7822 3.23047 19.3975L0.5 17.8213C-0.166667 17.4364 -0.166667 16.4738 0.5 16.0889L3.23047 14.5127ZM29.1797 15.3789C29.1797 14.6092 30.013 14.128 30.6797 14.5127L33.4102 16.0889C34.0768 16.4738 34.0768 17.4364 33.4102 17.8213L30.6797 19.3975C30.013 19.7822 29.1797 19.301 29.1797 18.5312V15.3789ZM4.70703 5.93164C4.50796 5.18821 5.18821 4.50799 5.93164 4.70703L8.97754 5.52344C9.72079 5.72289 9.96997 6.65205 9.42578 7.19629L7.19629 9.42578C6.65205 9.96989 5.72291 9.72074 5.52344 8.97754L4.70703 5.93164ZM27.9785 4.70703C28.722 4.50795 29.4022 5.18819 29.2031 5.93164L28.3867 8.97754C28.1872 9.72076 27.2581 9.96994 26.7139 9.42578L24.4844 7.19629C23.9402 6.65205 24.1894 5.72291 24.9326 5.52344L27.9785 4.70703ZM16.0889 0.5C16.4738 -0.166667 17.4364 -0.166667 17.8213 0.5L19.3975 3.23047C19.7822 3.89711 19.301 4.73047 18.5312 4.73047H15.3789C14.6092 4.73047 14.128 3.89711 14.5127 3.23047L16.0889 0.5Z" fill="black"/>
</svg>
